<svg viewBox="0 0 96 96" xmlns="http://www.w3.org/2000/svg" xmlns:xlink="http://www.w3.org/1999/xlink" id="Icons_Fuel" overflow="hidden"><path d="M77.141 38.265 79 36.778 78.921 36.214C78.035 30.235 73.221 23.529 63.206 21.249 62.6656 21.1352 62.1352 21.4811 62.0215 22.0216 62.0071 22.0898 61.9999 22.1593 62 22.229L62 24.222C62.0081 24.6716 62.3238 25.0568 62.763 25.153 67.516 26.326 70.795 31.393 71.112 37.688L72.926 68.152C73.0082 69.5352 71.9536 70.7232 70.5703 70.8055 70.5609 70.806 70.5514 70.8065 70.542 70.807L70.434 70.807C68.9993 70.7349 67.8813 69.5363 67.909 68.1L67.909 51.6C67.909 47.1817 64.3273 43.6 59.909 43.6L58 43.6 58 20C58 16.6863 55.3137 14 52 14L28 14C24.6863 14 22 16.6863 22 20L22 76 18 76 18 82 62 82 62 76 58 76 58 49.6 59.909 49.6C61.0136 49.6 61.909 50.4954 61.909 51.6L61.909 67.982C61.8603 70.9287 63.2912 73.7038 65.72 75.373 69.6259 77.9772 74.9033 76.9219 77.5075 73.016 78.5349 71.4751 79.0309 69.6407 78.92 67.792ZM28 20 52 20 52 38 28 38Z"/></svg>