<svg viewBox="0 0 96 96" xmlns="http://www.w3.org/2000/svg" xmlns:xlink="http://www.w3.org/1999/xlink" id="Icons_Quill_LTR" overflow="hidden"><path d="M48 89C44.907 89 43.3 87.237 41.861 85.225 40.744 83.664 40.023 82.772 38.215 82.606 35.988 82.406 33.879 83.617 31.437 85.022 27.386 87.355 22.344 90.256 15.144 86.858 14.1521 86.3719 13.7421 85.1738 14.2282 84.182 14.7041 83.2107 15.8661 82.7938 16.851 83.241 22.161 85.747 25.535 83.804 29.441 81.556 32.219 79.956 35.088 78.302 38.581 78.623 42.299 78.964 43.925 81.237 45.114 82.897 46.53 84.875 47.241 85.868 51.655 84.097 52.6806 83.6867 53.8447 84.1854 54.255 85.211 54.6653 86.2366 54.1666 87.4007 53.141 87.811 51.5176 88.5278 49.7733 88.9312 48 89Z"/><path d="M24.3 63.918C22.05 67.554 17.255 75.8 15.266 82.977 15.2583 83.0138 15.2818 83.0498 15.3186 83.0575 15.3439 83.0628 15.37 83.0533 15.386 83.033 17.1591 80.9063 19.1908 79.0093 21.434 77.386L21.434 77.386C21.462 77.303 23.174 72.425 28.247 64.713 28.2567 64.698 28.2744 64.6901 28.292 64.693 30.1122 64.8534 31.9455 64.6208 33.668 64.011 40.685 62.063 45.768 55.394 46.268 54.711 46.288 54.684 46.268 54.654 46.232 54.654 43.5238 54.6219 40.8566 53.9886 38.423 52.8 38.3613 52.7699 38.3194 52.7102 38.312 52.642 38.3082 52.6141 38.311 52.5857 38.32 52.559 38.3492 52.4635 38.4444 52.4041 38.543 52.42L38.549 52.42C43.9025 53.2685 49.3085 51.2441 52.788 47.088 54.9492 44.4897 57.3241 42.0769 59.888 39.875 63.105 37.112 67.176 34.369 70.938 31.533 71.1338 31.3772 71.1662 31.0923 71.0105 30.8965 70.9424 30.8109 70.8456 30.7528 70.738 30.733 68.2629 30.2709 65.9103 29.3015 63.828 27.886 63.7792 27.8531 63.7474 27.8005 63.741 27.742 63.736 27.7044 63.7423 27.6661 63.759 27.632 63.8018 27.5417 63.9047 27.4969 64 27.527 67.1413 28.4867 70.4828 28.5848 73.675 27.811 75.5542 27.347 77.2396 26.303 78.492 24.827 81.823 20.936 83.192 16.753 80.153 12.041 78.081 8.828 73.462 7.441 67.475 8.132 63.9691 8.50144 60.9673 10.8076 59.707 14.1 59.2767 15.2534 58.9648 16.4475 58.776 17.664 58.776 17.7745 58.6865 17.864 58.576 17.864 58.4655 17.864 58.376 17.7745 58.376 17.664 58.347 17.464 58.322 17.264 58.299 17.064 58.0766 15.0766 58.1824 13.0661 58.612 11.113 58.6709 10.8755 58.5261 10.6353 58.2887 10.5764 58.2023 10.555 58.1114 10.5601 58.028 10.591 53.3367 12.4717 48.9016 14.9372 44.828 17.929 40.1104 21.3244 35.7839 25.2326 31.928 29.582 29.4529 32.3622 28.1298 35.9809 28.228 39.702 28.2899 41.2627 28.5534 42.8089 29.012 44.302 29.0497 44.4058 28.9962 44.5206 28.8924 44.5583 28.8027 44.5909 28.7025 44.5556 28.653 44.474 27.3735 42.5898 26.4578 40.4829 25.953 38.262L25.871 38.249C23.483 42.828 20.9 50 20.492 54.749 20.235 57.761 21.079 60.463 22.63 61.935 22.6469 61.9525 22.6747 61.953 22.6922 61.9361 22.6953 61.9331 22.6979 61.9297 22.7 61.926 26.449 55.314 34.034 44.053 39.435 38.644 43.5521 34.4189 48.147 30.6875 53.127 27.525 53.8284 27.0828 54.5908 26.7459 55.39 26.525 55.4944 26.4891 55.6083 26.5446 55.6442 26.649 55.6748 26.7379 55.6393 26.8362 55.559 26.885 51.4639 29.7346 47.6307 32.9432 44.105 36.473 37.873 42.711 29.173 54.726 24.983 62.7 24.764 63.12 24.543 63.519 24.3 63.918Z"/></svg>