<svg viewBox="0 0 96 96" xmlns="http://www.w3.org/2000/svg" xmlns:xlink="http://www.w3.org/1999/xlink" id="Icons_Robot_M" overflow="hidden"><g id="Icons"><path d="M72.994 59.6 72.994 50.488C72.9918 48.5622 71.4308 47.0017 69.505 47L64.994 47 64.994 42 53.66 42 53.66 39 56.605 39C59.5801 38.9972 61.9912 36.5861 61.994 33.611L61.994 22.389C61.9912 19.4139 59.5801 17.0028 56.605 17L48.994 17 48.994 13.858C51.133 13.3057 52.4193 11.124 51.867 8.98502 51.3147 6.84603 49.133 5.55975 46.994 6.11203 44.855 6.66432 43.5687 8.84603 44.121 10.985 44.4848 12.394 45.585 13.4942 46.994 13.858L46.994 17 39.382 17C36.4073 17.0033 33.9968 19.4143 33.994 22.389L33.994 33.611C33.9968 36.5857 36.4073 38.9967 39.382 39L42.66 39 42.66 42 30.994 42 30.994 47.993 24.648 47.993C23.8268 47.9925 23.1611 47.3272 23.16 46.506L23.16 37.393C26.1466 36.839 28.1187 33.9688 27.5647 30.9822 27.3822 29.9985 26.9349 29.0833 26.271 28.335L24.777 29.665C26.0604 31.1105 25.929 33.3226 24.4835 34.606 23.0381 35.8894 20.8259 35.758 19.5425 34.3126 18.3726 32.9949 18.3647 31.013 19.524 29.686L18.018 28.369C16.0209 30.6578 16.2573 34.1321 18.5461 36.1292 19.2885 36.777 20.1912 37.2135 21.16 37.393L21.16 46.506C21.1622 48.4313 22.7227 49.9913 24.648 49.993L30.994 49.993 30.994 71.025C26.3106 71.3037 22.7399 75.3262 23.0186 80.0096 23.2855 84.4956 27.0001 87.9976 31.494 88L64.494 88C69.1857 87.9975 72.987 84.1921 72.9844 79.5004 72.982 75.0065 69.48 71.2919 64.994 71.025L64.994 49 69.505 49C70.3265 49.0011 70.9923 49.6665 70.994 50.488L70.994 59.6C68.0074 60.1539 66.0353 63.0241 66.5892 66.0108 66.7716 66.994 67.2185 67.9088 67.882 68.657L69.376 67.327C68.0929 65.8813 68.2247 63.6691 69.6704 62.386 71.1161 61.1029 73.3283 61.2347 74.6114 62.6804 75.7811 63.9983 75.7886 65.9803 74.629 67.307L76.135 68.623C78.1317 66.3339 77.8947 62.8596 75.6056 60.8629 74.8638 60.2158 73.9619 59.7797 72.994 59.6ZM45.994 10C45.994 8.89543 46.8894 8 47.994 8 49.0986 8 49.994 8.89543 49.994 10 49.994 11.1046 49.0986 12 47.994 12 46.8894 12.0006 45.9936 11.1056 45.993 10.001 45.993 10.0007 45.993 10.0003 45.993 10ZM32.994 59.07 41.169 59.07 44.427 52.145 47.488 63.873 51.619 55.373 54.219 61.543 56.235 59.482C56.5019 59.2373 56.8454 59.0927 57.207 59.073L62.991 59.073 62.991 71 32.991 71ZM39.382 37C37.5116 36.9972 35.9962 35.4814 35.994 33.611L35.994 22.389C35.9962 20.5186 37.5116 19.0028 39.382 19L56.605 19C58.4756 19.0028 59.9912 20.5184 59.994 22.389L59.994 33.611C59.9912 35.4816 58.4756 36.9972 56.605 37L39.382 37ZM44.66 39 51.66 39 51.66 42 44.66 42ZM42.66 44 62.994 44 62.994 57.07 57.21 57.07C56.3525 57.0876 55.5306 57.416 54.897 57.994L51.747 50.528 48.056 58.128 44.968 46.3 39.9 57.07 32.994 57.07 32.994 44ZM70.994 79.5C70.9896 83.088 68.082 85.9956 64.494 86L31.494 86C27.9041 86 24.994 83.0899 24.994 79.5 24.994 75.9101 27.9041 73 31.494 73L64.494 73C68.082 73.0044 70.9896 75.912 70.994 79.5Z"/><path d="M57.293 28C57.293 25.6252 55.3678 23.7 52.993 23.7 50.6182 23.7 48.693 25.6252 48.693 28 48.693 30.3748 50.6182 32.3 52.993 32.3 55.3678 32.3 57.293 30.3748 57.293 28ZM52.993 31C51.3361 31 49.993 29.6569 49.993 28 49.993 26.3431 51.3361 25 52.993 25 54.6499 25 55.993 26.3431 55.993 28 55.993 29.6569 54.6499 31 52.993 31Z"/><circle cx="52.993" cy="28" r="1.5"/><path d="M42.993 23.7C40.6182 23.7 38.693 25.6252 38.693 28 38.693 30.3748 40.6182 32.3 42.993 32.3 45.3678 32.3 47.293 30.3748 47.293 28 47.293 25.6252 45.3678 23.7 42.993 23.7ZM42.993 31C41.3361 31 39.993 29.6569 39.993 28 39.993 26.3431 41.3361 25 42.993 25 44.6499 25 45.993 26.3431 45.993 28 45.993 29.6569 44.6499 31 42.993 31Z"/><circle cx="42.993" cy="28" r="1.5"/><circle cx="47.994" cy="79.5" r="2"/><circle cx="33.494" cy="79.5" r="2"/><circle cx="62.494" cy="79.5" r="2"/></g></svg>